Coordinates
version=1
nRows=9
nColumns=24
inDegrees=yes

Units are S.I. units (second, meters, Newtons, ...)
Angles are in degrees.

endheader
time	pelvis_tilt	pelvis_list	pelvis_rotation	pelvis_tx	pelvis_ty	pelvis_tz	hip_flexion_r	hip_adduction_r	hip_rotation_r	knee_angle_r	ankle_angle_r	subtalar_angle_r	mtp_angle_r	hip_flexion_l	hip_adduction_l	hip_rotation_l	knee_angle_l	ankle_angle_l	subtalar_angle_l	mtp_angle_l	lumbar_extension	lumbar_bending	lumbar_rotation
      5.24000000	     -5.10786903	      1.77016779	     32.95094533	      0.98503992	      0.62971259	     -0.26770801	     30.74981532	    -14.40225695	    -29.29940743	     -4.71360199	     -2.07250181	    -13.70855597	      0.00000000	    -17.60327386	     -4.82492696	     10.12054121	    -16.15429449	     15.63758298	     -5.01621117	      0.00000000	    -10.58545580	     -3.04337432	    -17.60857007
      5.25000000	     -5.36899641	      0.90374909	     32.95342147	      0.99779060	      0.62687804	     -0.26862676	     31.90757845	    -14.10639701	    -28.56186098	     -7.27061132	     -5.09468293	    -17.68824772	      0.00000000	    -17.79652752	     -6.05186717	      9.95815165	    -16.26312625	     14.38222677	     -4.69231319	      0.00000000	     -9.74943041	     -1.79937835	    -17.31637641
      5.26000000	     -5.77755857	     -0.07595116	     32.48047450	      1.01021547	      0.62425167	     -0.26902050	     33.75770473	    -13.66579698	    -27.21162816	    -10.66976064	     -7.60881127	    -21.26316618	      0.00000000	    -17.58620811	     -7.07633312	      9.50446459	    -16.81725635	     12.89330484	     -4.49316077	      0.00000000	     -8.83756606	     -0.53766741	    -16.65261061
      5.27000000	     -6.00302841	     -1.17609564	     31.59391285	      1.02251740	      0.62213218	     -0.26895109	     35.78530924	    -12.84697385	    -25.87596952	    -14.61329734	     -8.76251747	    -23.61201487	      0.00000000	    -17.31560043	     -8.11988326	      8.76295874	    -17.77664211	     11.07394650	     -4.58774416	      0.00000000	     -8.16353916	      0.96483098	    -15.73801472
      5.28000000	     -6.01021344	     -2.36199026	     30.37128119	      1.03491326	      0.62059438	     -0.26846150	     37.63874490	    -11.57410195	    -24.77135248	    -18.57543890	     -8.26555146	    -24.50504287	      0.00000000	    -17.07720121	     -9.21555063	      7.75967580	    -19.08947860	      8.88144156	     -4.79694224	      0.00000000	     -7.74924655	      2.67010741	    -14.68573856
      5.29000000	     -6.06955752	     -3.50864764	     28.97724275	      1.04731341	      0.61950429	     -0.26753121	     39.23255494	     -9.99572218	    -23.59774814	    -21.94911240	     -7.38388608	    -25.33626536	      0.00000000	    -16.52752864	    -10.17479182	      6.63633937	    -20.94370287	      6.28306776	     -5.19458447	      0.00000000	     -7.41422070	      4.24917662	    -13.68450323
      5.30000000	     -6.15915104	     -4.56342625	     27.53456918	      1.05973640	      0.61896359	     -0.26627396	     40.36075881	     -8.18123495	    -22.45587768	    -24.48594637	     -6.20640742	    -26.11457828	      0.00000000	    -15.76464336	    -10.98166691	      5.72940688	    -23.13566501	      3.11728996	     -6.14676741	      0.00000000	     -7.14811489	      5.66658538	    -12.95852337
      5.31000000	     -6.13701305	     -5.53857914	     26.16544934	      1.07204975	      0.61908467	     -0.26471560	     40.82688815	     -6.14933071	    -21.44715383	    -26.08314329	     -5.08547721	    -26.94944835	      0.00000000	    -14.77937070	    -11.79005931	      4.91447092	    -25.80228155	     -0.32340184	     -7.20239655	      0.00000000	     -7.09708538	      6.99680229	    -12.47315626
      5.32000000	     -6.15969894	     -6.28285503	     24.86605476	      1.08406199	      0.61972056	     -0.26290869	     40.85918835	     -4.16557899	    -20.35390587	    -26.96783329	     -4.13706945	    -27.95545866	      0.00000000	    -13.46302596	    -12.34282617	      4.42494213	    -28.91082065	     -3.91235470	     -8.51973614	      0.00000000	     -7.15998818	      7.99478793	    -12.19262226
